P3
# Created by GIMP version 2.10.18 PNM plug-in
40 40
255
255
255
255
255
255
255
255
255
255
255
255
255
255
255
255
255
255
255
255
255
255
255
255
255
255
255
255
255
255
255
255
255
255
255
255
255
255
255
255
255
255
255
255
255
255
255
255
255
255
255
255
255
255
255
255
255
255
255
255
255
255
255
255
255
255
255
255
255
255
255
255
255
255
255
255
255
255
255
255
255
255
255
255
255
255
255
255
255
255
255
255
255
255
255
255
255
255
255
255
255
255
255
255
255
255
255
255
255
255
255
255
255
255
255
255
255
255
255
255
255
255
255
255
255
255
255
255
255
255
255
255
255
255
255
255
255
255
255
255
255
255
255
255
255
255
255
255
255
255
255
255
255
255
255
255
255
255
255
255
255
255
255
255
255
255
255
255
255
255
255
255
255
255
255
255
255
255
255
255
255
255
255
255
255
255
255
255
255
255
255
255
255
255
255
255
255
255
255
255
255
255
255
255
255
255
255
255
255
255
255
255
255
255
255
255
255
255
255
255
255
255
255
255
255
255
255
255
255
255
255
255
255
255
255
255
255
255
255
255
255
255
255
255
255
255
255
255
255
255
255
255
255
255
255
255
255
255
255
255
255
255
255
255
255
255
255
255
255
255
255
255
255
255
255
255
255
255
255
255
255
255
255
255
255
255
255
255
255
255
255
255
255
255
255
255
255
255
255
255
255
255
255
255
255
255
255
255
255
255
255
255
255
255
255
255
255
255
255
255
255
255
255
255
255
255
255
255
255
255
255
255
255
255
255
255
255
255
255
255
255
255
255
255
255
255
255
255
255
255
255
255
255
255
255
255
255
255
255
255
255
255
255
255
255
255
255
255
255
255
255
255
255
255
255
255
255
255
255
255
255
255
255
255
255
255
255
255
255
255
255
255
255
255
255
255
255
255
255
255
255
255
255
255
255
255
255
255
255
255
255
255
255
255
255
255
255
255
255
255
255
255
255
255
255
255
255
255
255
255
255
255
255
255
255
255
255
255
255
255
255
255
255
255
255
255
255
255
255
255
255
255
255
255
255
255
255
255
255
255
255
255
255
255
255
255
255
255
255
255
255
255
255
255
255
255
255
255
255
255
255
236
236
236
77
94
77
73
91
73
73
91
73
73
91
73
73
91
73
73
91
73
73
91
73
73
91
73
73
91
73
73
91
73
73
91
73
73
91
73
73
91
73
73
91
73
73
91
73
73
91
73
73
91
73
73
91
73
73
91
73
73
91
73
73
91
73
73
91
73
73
91
73
73
91
73
73
91
73
73
91
73
73
91
73
73
91
73
73
91
73
73
91
73
73
91
73
73
91
73
73
91
73
73
91
73
73
91
73
73
91
73
73
91
73
83
99
83
240
241
240
255
255
255
167
171
167
0
57
0
0
57
0
0
57
0
0
57
0
0
57
0
0
57
0
0
57
0
0
57
0
0
57
0
0
57
0
0
57
0
0
57
0
0
57
0
0
57
0
0
57
0
0
57
0
0
57
0
0
57
0
0
57
0
0
57
0
0
57
0
0
57
0
0
57
0
0
57
0
0
57
0
0
57
0
0
57
0
0
57
0
0
57
0
0
57
0
0
57
0
0
57
0
0
57
0
0
57
0
0
57
0
0
57
0
176
180
176
255
255
255
255
255
255
244
245
244
64
85
64
0
57
0
0
57
0
0
57
0
0
57
0
0
57
0
0
57
0
0
57
0
0
57
0
0
57
0
0
57
0
0
57
0
0
57
0
0
57
0
0
57
0
0
57
0
0
57
0
0
57
0
0
57
0
0
57
0
0
57
0
0
57
0
0
57
0
0
57
0
0
57
0
0
57
0
0
57
0
0
57
0
0
57
0
0
57
0
0
57
0
0
57
0
0
57
0
0
57
0
0
57
0
75
93
75
247
247
247
255
255
255
255
255
255
255
255
255
192
195
192
0
57
0
0
57
0
0
57
0
0
57
0
0
57
0
0
57
0
0
57
0
0
57
0
0
57
0
0
57
0
0
57
0
0
57
0
0
57
0
0
57
0
0
57
0
0
57
0
0
57
0
0
57
0
0
57
0
0
57
0
0
57
0
0
57
0
0
57
0
0
57
0
0
57
0
0
57
0
0
57
0
0
57
0
0
57
0
0
57
0
0
57
0
0
57
0
0
57
0
0
57
0
198
201
198
255
255
255
255
255
255
255
255
255
255
255
255
252
252
252
102
114
102
0
57
0
0
57
0
0
57
0
2
217
0
2
217
0
2
217
0
2
217
0
2
217
0
2
217
0
2
217
0
2
217
0
2
217
0
2
217
0
2
217
0
2
217
0
2
217
0
2
217
0
2
217
0
2
217
0
2
217
0
2
217
0
2
217
0
2
217
0
2
217
0
2
217
0
2
217
0
2
217
0
2
217
0
2
217
0
0
57
0
0
57
0
0
57
0
110
121
110
253
253
253
255
255
255
255
255
255
255
255
255
255
255
255
255
255
255
215
217
215
0
57
0
0
57
0
0
57
0
0
57
0
2
217
0
2
217
0
2
217
0
2
217
0
2
217
0
2
217
0
2
217
0
2
217
0
2
217
0
2
217
0
2
217
0
2
217
0
2
217
0
2
217
0
2
217
0
2
217
0
2
217
0
2
217
0
2
217
0
2
217
0
2
217
0
2
217
0
2
217
0
2
217
0
0
57
0
0
57
0
0
57
0
0
57
0
218
220
218
255
255
255
255
255
255
255
255
255
255
255
255
255
255
255
255
255
255
255
255
255
132
140
132
0
57
0
0
57
0
0
57
0
2
217
0
2
217
0
2
217
0
2
217
0
2
217
0
2
217
0
2
217
0
2
217
0
2
217
0
2
217
0
2
217
0
2
217
0
2
217
0
2
217
0
2
217
0
2
217
0
2
217
0
2
217
0
2
217
0
2
217
0
2
217
0
2
217
0
2
217
0
2
217
0
0
57
0
0
57
0
0
57
0
144
151
144
255
255
255
255
255
255
255
255
255
255
255
255
255
255
255
255
255
255
255
255
255
255
255
255
231
232
231
22
62
22
0
57
0
0
57
0
0
57
0
2
217
0
2
217
0
2
217
0
2
217
0
2
217
0
2
217
0
2
217
0
2
217
0
2
217
0
2
217
0
2
217
0
2
217
0
2
217
0
2
217
0
2
217
0
2
217
0
2
217
0
2
217
0
2
217
0
2
217
0
2
217
0
2
217
0
0
57
0
0
57
0
0
57
0
34
67
34
236
236
236
255
255
255
255
255
255
255
255
255
255
255
255
255
255
255
255
255
255
255
255
255
255
255
255
255
255
255
169
174
169
0
57
0
0
57
0
0
57
0
77
94
77
2
217
0
2
217
0
2
217
0
2
217
0
2
217
0
2
217
0
2
217
0
2
217
0
2
217
0
2
217
0
2
217
0
2
217
0
2
217
0
2
217
0
2
217
0
2
217
0
2
217
0
2
217
0
2
217
0
2
217
0
2
217
0
0
57
0
0
57
0
0
57
0
171
176
171
255
255
255
255
255
255
255
255
255
255
255
255
255
255
255
255
255
255
255
255
255
255
255
255
255
255
255
255
255
255
244
245
244
64
85
64
0
57
0
0
57
0
0
57
0
2
217
0
2
217
0
2
217
0
2
217
0
2
217
0
2
217
0
2
217
0
2
217
0
2
217
0
2
217
0
2
217
0
2
217
0
2
217
0
2
217
0
2
217
0
2
217
0
2
217
0
2
217
0
2
217
0
2
217
0
0
57
0
0
57
0
0
57
0
71
90
71
246
246
246
255
255
255
255
255
255
255
255
255
255
255
255
255
255
255
255
255
255
255
255
255
255
255
255
255
255
255
255
255
255
255
255
255
194
197
194
0
57
0
0
57
0
0
57
0
38
69
38
2
217
0
2
217
0
2
217
0
2
217
0
2
217
0
2
217
0
2
217
0
2
217
0
2
217
0
2
217
0
2
217
0
2
217
0
2
217
0
2
217
0
2
217
0
2
217
0
2
217
0
2
217
0
28
65
28
0
57
0
0
57
0
0
57
0
195
198
195
255
255
255
255
255
255
255
255
255
255
255
255
255
255
255
255
255
255
255
255
255
255
255
255
255
255
255
255
255
255
255
255
255
255
255
255
252
252
252
102
114
102
0
57
0
0
57
0
0
57
0
2
217
0
2
217
0
2
217
0
2
217
0
2
217
0
2
217
0
2
217
0
2
217
0
2
217
0
2
217
0
2
217
0
2
217
0
2
217
0
2
217
0
2
217
0
2
217
0
2
217
0
2
217
0
0
57
0
0
57
0
0
57
0
106
118
106
252
252
252
255
255
255
255
255
255
255
255
255
255
255
255
255
255
255
255
255
255
255
255
255
255
255
255
255
255
255
255
255
255
255
255
255
255
255
255
255
255
255
216
218
216
0
57
0
0
57
0
0
57
0
0
57
0
2
217
0
2
217
0
2
217
0
2
217
0
2
217
0
2
217
0
2
217
0
2
217
0
2
217
0
2
217
0
2
217
0
2
217
0
2
217
0
2
217
0
2
217
0
2
217
0
0
57
0
0
57
0
0
57
0
0
57
0
215
217
215
255
255
255
255
255
255
255
255
255
255
255
255
255
255
255
255
255
255
255
255
255
255
255
255
255
255
255
255
255
255
255
255
255
255
255
255
255
255
255
255
255
255
255
255
255
138
146
138
0
57
0
0
57
0
0
57
0
2
217
0
2
217
0
2
217
0
2
217
0
2
217
0
2
217
0
2
217
0
2
217
0
2
217
0
2
217
0
2
217
0
2
217
0
2
217
0
2
217
0
2
217
0
2
217
0
0
57
0
0
57
0
0
57
0
141
148
141
255
255
255
255
255
255
255
255
255
255
255
255
255
255
255
255
255
255
255
255
255
255
255
255
255
255
255
255
255
255
255
255
255
255
255
255
255
255
255
255
255
255
255
255
255
255
255
255
234
235
234
28
65
28
0
57
0
0
57
0
0
57
0
2
217
0
2
217
0
2
217
0
2
217
0
2
217
0
2
217
0
2
217
0
2
217
0
2
217
0
2
217
0
2
217
0
2
217
0
2
217
0
2
217
0
0
57
0
0
57
0
0
57
0
28
65
28
233
234
233
255
255
255
255
255
255
255
255
255
255
255
255
255
255
255
255
255
255
255
255
255
255
255
255
255
255
255
255
255
255
255
255
255
255
255
255
255
255
255
255
255
255
255
255
255
255
255
255
255
255
255
171
176
171
0
57
0
0
57
0
0
57
0
2
217
0
2
217
0
2
217
0
2
217
0
2
217
0
2
217
0
2
217
0
2
217
0
2
217
0
2
217
0
2
217
0
2
217
0
2
217
0
2
217
0
0
57
0
0
57
0
0
57
0
167
172
167
255
255
255
255
255
255
255
255
255
255
255
255
255
255
255
255
255
255
255
255
255
255
255
255
255
255
255
255
255
255
255
255
255
255
255
255
255
255
255
255
255
255
255
255
255
255
255
255
255
255
255
255
255
255
244
245
244
66
86
66
0
57
0
0
57
0
0
57
0
2
217
0
2
217
0
2
217
0
2
217
0
2
217
0
2
217
0
2
217
0
2
217
0
2
217
0
2
217
0
2
217
0
2
217
0
0
57
0
0
57
0
0
57
0
66
86
66
245
245
245
255
255
255
255
255
255
255
255
255
255
255
255
255
255
255
255
255
255
255
255
255
255
255
255
255
255
255
255
255
255
255
255
255
255
255
255
255
255
255
255
255
255
255
255
255
255
255
255
255
255
255
255
255
255
255
255
255
196
199
196
0
57
0
0
57
0
0
57
0
34
67
34
2
217
0
2
217
0
2
217
0
2
217
0
2
217
0
2
217
0
2
217
0
2
217
0
2
217
0
2
217
0
2
217
0
0
57
0
0
57
0
0
57
0
191
194
191
255
255
255
255
255
255
255
255
255
255
255
255
255
255
255
255
255
255
255
255
255
255
255
255
255
255
255
255
255
255
255
255
255
255
255
255
255
255
255
255
255
255
255
255
255
255
255
255
255
255
255
255
255
255
255
255
255
255
255
255
252
252
252
104
115
104
0
57
0
0
57
0
0
57
0
2
217
0
2
217
0
2
217
0
2
217
0
2
217
0
2
217
0
2
217
0
2
217
0
2
217
0
2
217
0
0
57
0
0
57
0
0
57
0
99
112
99
251
252
251
255
255
255
255
255
255
255
255
255
255
255
255
255
255
255
255
255
255
255
255
255
255
255
255
255
255
255
255
255
255
255
255
255
255
255
255
255
255
255
255
255
255
255
255
255
255
255
255
255
255
255
255
255
255
255
255
255
255
255
255
255
255
255
218
219
218
0
57
0
0
57
0
0
57
0
0
57
0
2
217
0
2
217
0
2
217
0
2
217
0
2
217
0
2
217
0
2
217
0
2
217
0
0
57
0
0
57
0
0
57
0
0
57
0
212
214
212
255
255
255
255
255
255
255
255
255
255
255
255
255
255
255
255
255
255
255
255
255
255
255
255
255
255
255
255
255
255
255
255
255
255
255
255
255
255
255
255
255
255
255
255
255
255
255
255
255
255
255
255
255
255
255
255
255
255
255
255
255
255
255
255
255
255
255
255
255
139
146
139
0
57
0
0
57
0
0
57
0
2
217
0
2
217
0
2
217
0
2
217
0
2
217
0
2
217
0
2
217
0
2
217
0
0
57
0
0
57
0
0
57
0
134
142
134
255
255
255
255
255
255
255
255
255
255
255
255
255
255
255
255
255
255
255
255
255
255
255
255
255
255
255
255
255
255
255
255
255
255
255
255
255
255
255
255
255
255
255
255
255
255
255
255
255
255
255
255
255
255
255
255
255
255
255
255
255
255
255
255
255
255
255
255
255
255
255
255
234
235
234
28
65
28
0
57
0
0
57
0
0
57
0
2
217
0
2
217
0
2
217
0
2
217
0
2
217
0
2
217
0
0
57
0
0
57
0
0
57
0
22
62
22
232
233
232
255
255
255
255
255
255
255
255
255
255
255
255
255
255
255
255
255
255
255
255
255
255
255
255
255
255
255
255
255
255
255
255
255
255
255
255
255
255
255
255
255
255
255
255
255
255
255
255
255
255
255
255
255
255
255
255
255
255
255
255
255
255
255
255
255
255
255
255
255
255
255
255
255
255
255
173
177
173
0
57
0
0
57
0
0
57
0
71
90
71
2
217
0
2
217
0
2
217
0
2
217
0
83
99
83
0
57
0
0
57
0
0
57
0
163
168
163
255
255
255
255
255
255
255
255
255
255
255
255
255
255
255
255
255
255
255
255
255
255
255
255
255
255
255
255
255
255
255
255
255
255
255
255
255
255
255
255
255
255
255
255
255
255
255
255
255
255
255
255
255
255
255
255
255
255
255
255
255
255
255
255
255
255
255
255
255
255
255
255
255
255
255
255
255
255
246
246
246
73
91
73
0
57
0
0
57
0
0
57
0
2
217
0
2
217
0
2
217
0
2
217
0
0
57
0
0
57
0
0
57
0
59
81
59
243
243
243
255
255
255
255
255
255
255
255
255
255
255
255
255
255
255
255
255
255
255
255
255
255
255
255
255
255
255
255
255
255
255
255
255
255
255
255
255
255
255
255
255
255
255
255
255
255
255
255
255
255
255
255
255
255
255
255
255
255
255
255
255
255
255
255
255
255
255
255
255
255
255
255
255
255
255
255
255
255
255
255
255
197
200
197
0
57
0
0
57
0
0
57
0
34
67
34
2
217
0
2
217
0
43
71
42
0
57
0
0
57
0
0
57
0
188
191
188
255
255
255
255
255
255
255
255
255
255
255
255
255
255
255
255
255
255
255
255
255
255
255
255
255
255
255
255
255
255
255
255
255
255
255
255
255
255
255
255
255
255
255
255
255
255
255
255
255
255
255
255
255
255
255
255
255
255
255
255
255
255
255
255
255
255
255
255
255
255
255
255
255
255
255
255
255
255
255
255
255
255
255
255
252
252
252
105
117
105
0
57
0
0
57
0
0
57
0
2
217
0
2
217
0
0
57
0
0
57
0
0
57
0
96
109
96
251
251
251
255
255
255
255
255
255
255
255
255
255
255
255
255
255
255
255
255
255
255
255
255
255
255
255
255
255
255
255
255
255
255
255
255
255
255
255
255
255
255
255
255
255
255
255
255
255
255
255
255
255
255
255
255
255
255
255
255
255
255
255
255
255
255
255
255
255
255
255
255
255
255
255
255
255
255
255
255
255
255
255
255
255
255
255
255
255
255
219
221
219
0
57
0
0
57
0
0
57
0
0
57
0
0
57
0
0
57
0
0
57
0
0
57
0
210
212
210
255
255
255
255
255
255
255
255
255
255
255
255
255
255
255
255
255
255
255
255
255
255
255
255
255
255
255
255
255
255
255
255
255
255
255
255
255
255
255
255
255
255
255
255
255
255
255
255
255
255
255
255
255
255
255
255
255
255
255
255
255
255
255
255
255
255
255
255
255
255
255
255
255
255
255
255
255
255
255
255
255
255
255
255
255
255
255
255
255
255
255
255
255
140
147
140
0
57
0
0
57
0
0
57
0
0
57
0
0
57
0
0
57
0
132
140
132
255
255
255
255
255
255
255
255
255
255
255
255
255
255
255
255
255
255
255
255
255
255
255
255
255
255
255
255
255
255
255
255
255
255
255
255
255
255
255
255
255
255
255
255
255
255
255
255
255
255
255
255
255
255
255
255
255
255
255
255
255
255
255
255
255
255
255
255
255
255
255
255
255
255
255
255
255
255
255
255
255
255
255
255
255
255
255
255
255
255
255
255
255
255
255
255
235
235
235
34
67
34
0
57
0
0
57
0
0
57
0
0
57
0
13
60
13
229
230
229
255
255
255
255
255
255
255
255
255
255
255
255
255
255
255
255
255
255
255
255
255
255
255
255
255
255
255
255
255
255
255
255
255
255
255
255
255
255
255
255
255
255
255
255
255
255
255
255
255
255
255
255
255
255
255
255
255
255
255
255
255
255
255
255
255
255
255
255
255
255
255
255
255
255
255
255
255
255
255
255
255
255
255
255
255
255
255
255
255
255
255
255
255
255
255
255
255
255
255
175
179
175
0
57
0
0
57
0
0
57
0
0
57
0
159
165
159
255
255
255
255
255
255
255
255
255
255
255
255
255
255
255
255
255
255
255
255
255
255
255
255
255
255
255
255
255
255
255
255
255
255
255
255
255
255
255
255
255
255
255
255
255
255
255
255
255
255
255
255
255
255
255
255
255
255
255
255
255
255
255
255
255
255
255
255
255
255
255
255
255
255
255
255
255
255
255
255
255
255
255
255
255
255
255
255
255
255
255
255
255
255
255
255
255
255
255
255
255
255
247
247
247
118
128
118
210
212
210
217
219
217
119
129
119
241
242
241
255
255
255
255
255
255
255
255
255
255
255
255
255
255
255
255
255
255
255
255
255
255
255
255
255
255
255
255
255
255
255
255
255
255
255
255
255
255
255
255
255
255
255
255
255
255
255
255
255
255
255
255
255
255
255
255
255
255
255
255
255
255
255
255
255
255
255
255
255
255
255
255
255
255
255
255
255
255
255
255
255
255
255
255
255
255
255
255
255
255
255
255
255
255
255
255
255
255
255
255
255
255
255
255
255
255
255
255
255
255
255
255
255
255
255
255
255
255
255
255
255
255
255
255
255
255
255
255
255
255
255
255
255
255
255
255
255
255
255
255
255
255
255
255
255
255
255
255
255
255
255
255
255
255
255
255
255
255
255
255
255
255
255
255
255
255
255
255
255
255
255
255
255
255
255
255
255
255
255
255
255
255
255
255
255
255
255
255
255
255
255
255
255
255
255
255
255
255
255
255
255
255
255
255
255
255
255
255
255
255
255
255
255
255
255
255
255
255
255
255
255
255
255
255
255
255
255
255
255
255
255
255
255
255
255
255
255
255
255
255
255
255
255
255
255
255
255
255
255
255
255
255
255
255
255
255
255
255
255
255
255
255
255
255
255
255
255
255
255
255
255
255
255
255
255
255
255
255
255
255
255
255
255
255
255
255
255
255
255
255
255
255
255
255
255
255
255
255
255
255
255
255
255
255
255
255
255
255
255
255
255
255
255
255
255
255
255
255
255
255
255
255
255
255
255
255
255
255
255
255
255
255
255
255
255
255
255
255
255
255
255
255
255
255
255
255
255
255
255
255
255
255
255
255
255
255
255
255
255
255
255
255
255
255
255
255
255
255
255
255
255
255
255
255
255
255
255
255
255
255
255
255
255
255
255
255
255
255
255
255
255
255
255
255
255
255
255
255
255
255
255
255
255
255
255
255
255
255
255
255
255
255
255
255
255
255
255
255
255
255
255
255
255
255
255
255
255
255
255
255
255
255
255
255
255
255
255
255
255
255
255
255
255
255
255
255
255
255
255
255
255
255
255
255
255
255
255
255
255
255
255
255
255
255
255
255
255
255
255
255
255
255
255
255
255
255
255
255
255
255
255
255
255
255
255
255
255
255
255
255
255
255
255
255
255
255
255
255
255
255
255
255
255
255
255
255
255
255
255
255
255
255
255
255
255
255
255
255
255
255
255
255
255
255
255
255
255
255
255
255
255
255
255
255
255
255
255
255
255
255
255
255
255
255
255
255
255
255
255
255
255
255
255
255
255
255
255
255
255
255
255
255
255
255
255
255
255
255
255
255
255
255
255
255
255
255
255
255
255
255
255
255
255
255
255
255
255
255
255
255
255
255
255
255
255
255
255
255
255
255
255
255
255
255
255
255
255
255
255
255
255
255
255
255
255
255
255
255
255
255
255
255
255
255
255
255
255
255
255
255
255
255
255
255
255
255
255
255
255
255
255
255
255
255
255
255
255
255
255
255
255
