P3
# Created by GIMP version 2.10.18 PNM plug-in
40 40
255
255
255
255
255
255
255
255
255
255
255
255
255
255
255
255
255
255
255
255
255
255
255
255
255
255
255
255
255
255
255
255
255
255
255
255
255
255
255
255
255
255
255
255
255
255
255
255
255
255
255
255
255
255
255
255
255
255
255
255
255
255
255
255
255
255
255
255
255
255
255
255
255
255
255
255
255
255
255
255
255
255
255
255
255
255
255
255
255
255
255
255
255
255
255
255
255
255
255
255
255
255
255
255
255
255
255
255
255
255
255
255
255
255
255
255
255
255
255
255
255
255
255
255
255
255
255
255
255
255
255
255
255
255
255
255
255
255
255
255
255
255
255
255
255
255
255
255
255
255
255
255
255
255
255
255
255
255
255
255
255
255
255
255
255
255
255
255
255
255
255
255
255
255
255
255
255
255
255
255
255
255
255
255
255
255
255
255
255
255
255
255
255
255
255
255
255
255
255
255
255
255
255
255
255
255
255
255
255
255
255
255
255
255
255
255
255
255
255
255
255
255
255
255
255
255
255
255
255
255
255
255
255
255
255
255
255
255
255
255
255
255
255
255
255
255
255
255
255
255
255
255
255
255
255
255
255
255
255
255
255
255
255
255
255
255
255
255
255
255
255
255
255
255
255
255
255
255
255
255
255
255
255
255
255
255
255
255
255
255
255
255
255
255
255
255
255
255
255
255
255
255
255
255
255
255
255
255
255
255
255
255
255
255
255
255
255
255
255
255
255
255
255
255
255
255
255
255
255
255
255
255
255
255
255
255
255
255
255
255
255
255
255
255
255
255
255
255
255
255
255
255
255
255
255
255
255
255
255
255
255
255
255
255
255
255
255
255
255
255
255
255
255
255
255
255
255
255
255
255
255
255
255
255
255
255
255
255
255
255
255
255
255
255
255
255
255
255
255
255
255
255
255
255
255
255
255
255
255
255
255
255
255
255
255
255
255
255
255
255
255
255
255
255
255
255
255
255
255
255
255
255
255
255
255
255
255
255
255
255
255
255
255
255
255
255
255
255
255
255
255
255
255
255
255
255
255
255
255
255
255
255
255
255
255
255
255
255
255
255
255
255
255
255
255
255
255
255
255
255
255
255
255
255
255
255
255
255
255
255
255
255
255
255
255
255
255
255
255
255
255
255
255
255
255
255
255
255
255
255
255
255
255
255
255
255
255
255
255
255
255
255
255
255
255
255
255
255
255
255
255
255
255
255
255
255
255
255
255
255
255
255
255
255
255
255
255
255
255
255
255
255
255
255
255
255
255
255
255
255
255
255
255
255
255
255
255
255
255
255
255
255
255
255
255
255
255
255
255
255
255
255
255
255
255
255
255
255
255
255
255
255
255
255
255
255
255
255
255
255
255
255
255
255
255
255
255
255
255
255
255
255
255
255
255
255
255
255
255
255
255
255
255
255
255
255
255
255
255
255
255
255
255
255
255
255
255
255
255
255
255
255
255
255
255
255
255
255
255
255
255
255
241
242
241
119
129
119
217
219
217
210
212
210
118
128
118
247
247
247
255
255
255
255
255
255
255
255
255
255
255
255
255
255
255
255
255
255
255
255
255
255
255
255
255
255
255
255
255
255
255
255
255
255
255
255
255
255
255
255
255
255
255
255
255
255
255
255
255
255
255
255
255
255
255
255
255
255
255
255
255
255
255
255
255
255
255
255
255
255
255
255
255
255
255
255
255
255
255
255
255
255
255
255
255
255
255
255
255
255
255
255
255
255
255
255
255
255
255
255
255
255
159
165
159
0
57
0
0
57
0
0
57
0
0
57
0
175
179
175
255
255
255
255
255
255
255
255
255
255
255
255
255
255
255
255
255
255
255
255
255
255
255
255
255
255
255
255
255
255
255
255
255
255
255
255
255
255
255
255
255
255
255
255
255
255
255
255
255
255
255
255
255
255
255
255
255
255
255
255
255
255
255
255
255
255
255
255
255
255
255
255
255
255
255
255
255
255
255
255
255
255
255
255
255
255
255
255
255
255
255
255
255
255
255
255
255
255
255
229
230
229
13
60
13
0
57
0
0
57
0
0
57
0
0
57
0
34
67
34
235
235
235
255
255
255
255
255
255
255
255
255
255
255
255
255
255
255
255
255
255
255
255
255
255
255
255
255
255
255
255
255
255
255
255
255
255
255
255
255
255
255
255
255
255
255
255
255
255
255
255
255
255
255
255
255
255
255
255
255
255
255
255
255
255
255
255
255
255
255
255
255
255
255
255
255
255
255
255
255
255
255
255
255
255
255
255
255
255
255
255
255
255
255
255
255
255
255
255
132
140
132
0
57
0
0
57
0
0
57
0
0
57
0
0
57
0
0
57
0
140
147
140
255
255
255
255
255
255
255
255
255
255
255
255
255
255
255
255
255
255
255
255
255
255
255
255
255
255
255
255
255
255
255
255
255
255
255
255
255
255
255
255
255
255
255
255
255
255
255
255
255
255
255
255
255
255
255
255
255
255
255
255
255
255
255
255
255
255
255
255
255
255
255
255
255
255
255
255
255
255
255
255
255
255
255
255
255
255
255
255
255
255
255
255
255
210
212
210
0
57
0
0
57
0
0
57
0
0
57
0
0
57
0
0
57
0
0
57
0
0
57
0
219
221
219
255
255
255
255
255
255
255
255
255
255
255
255
255
255
255
255
255
255
255
255
255
255
255
255
255
255
255
255
255
255
255
255
255
255
255
255
255
255
255
255
255
255
255
255
255
255
255
255
255
255
255
255
255
255
255
255
255
255
255
255
255
255
255
255
255
255
255
255
255
255
255
255
255
255
255
255
255
255
255
255
255
255
255
255
255
255
255
251
251
251
96
109
96
0
57
0
0
57
0
0
57
0
2
217
0
2
217
0
0
57
0
0
57
0
0
57
0
105
117
105
252
252
252
255
255
255
255
255
255
255
255
255
255
255
255
255
255
255
255
255
255
255
255
255
255
255
255
255
255
255
255
255
255
255
255
255
255
255
255
255
255
255
255
255
255
255
255
255
255
255
255
255
255
255
255
255
255
255
255
255
255
255
255
255
255
255
255
255
255
255
255
255
255
255
255
255
255
255
255
255
255
255
255
255
255
255
255
188
191
188
0
57
0
0
57
0
0
57
0
43
71
42
2
217
0
2
217
0
34
67
34
0
57
0
0
57
0
0
57
0
197
200
197
255
255
255
255
255
255
255
255
255
255
255
255
255
255
255
255
255
255
255
255
255
255
255
255
255
255
255
255
255
255
255
255
255
255
255
255
255
255
255
255
255
255
255
255
255
255
255
255
255
255
255
255
255
255
255
255
255
255
255
255
255
255
255
255
255
255
255
255
255
255
255
255
255
255
255
255
255
255
255
255
255
243
243
243
59
81
59
0
57
0
0
57
0
0
57
0
2
217
0
2
217
0
2
217
0
2
217
0
0
57
0
0
57
0
0
57
0
73
91
73
246
246
246
255
255
255
255
255
255
255
255
255
255
255
255
255
255
255
255
255
255
255
255
255
255
255
255
255
255
255
255
255
255
255
255
255
255
255
255
255
255
255
255
255
255
255
255
255
255
255
255
255
255
255
255
255
255
255
255
255
255
255
255
255
255
255
255
255
255
255
255
255
255
255
255
255
255
255
255
255
255
163
168
163
0
57
0
0
57
0
0
57
0
83
99
83
2
217
0
2
217
0
2
217
0
2
217
0
71
90
71
0
57
0
0
57
0
0
57
0
173
177
173
255
255
255
255
255
255
255
255
255
255
255
255
255
255
255
255
255
255
255
255
255
255
255
255
255
255
255
255
255
255
255
255
255
255
255
255
255
255
255
255
255
255
255
255
255
255
255
255
255
255
255
255
255
255
255
255
255
255
255
255
255
255
255
255
255
255
255
255
255
255
255
255
255
255
255
232
233
232
22
62
22
0
57
0
0
57
0
0
57
0
2
217
0
2
217
0
2
217
0
2
217
0
2
217
0
2
217
0
0
57
0
0
57
0
0
57
0
28
65
28
234
235
234
255
255
255
255
255
255
255
255
255
255
255
255
255
255
255
255
255
255
255
255
255
255
255
255
255
255
255
255
255
255
255
255
255
255
255
255
255
255
255
255
255
255
255
255
255
255
255
255
255
255
255
255
255
255
255
255
255
255
255
255
255
255
255
255
255
255
255
255
255
255
255
255
134
142
134
0
57
0
0
57
0
0
57
0
2
217
0
2
217
0
2
217
0
2
217
0
2
217
0
2
217
0
2
217
0
2
217
0
0
57
0
0
57
0
0
57
0
139
146
139
255
255
255
255
255
255
255
255
255
255
255
255
255
255
255
255
255
255
255
255
255
255
255
255
255
255
255
255
255
255
255
255
255
255
255
255
255
255
255
255
255
255
255
255
255
255
255
255
255
255
255
255
255
255
255
255
255
255
255
255
255
255
255
255
255
255
255
255
255
212
214
212
0
57
0
0
57
0
0
57
0
0
57
0
2
217
0
2
217
0
2
217
0
2
217
0
2
217
0
2
217
0
2
217
0
2
217
0
0
57
0
0
57
0
0
57
0
0
57
0
218
219
218
255
255
255
255
255
255
255
255
255
255
255
255
255
255
255
255
255
255
255
255
255
255
255
255
255
255
255
255
255
255
255
255
255
255
255
255
255
255
255
255
255
255
255
255
255
255
255
255
255
255
255
255
255
255
255
255
255
255
255
255
255
255
255
251
252
251
99
112
99
0
57
0
0
57
0
0
57
0
2
217
0
2
217
0
2
217
0
2
217
0
2
217
0
2
217
0
2
217
0
2
217
0
2
217
0
2
217
0
0
57
0
0
57
0
0
57
0
104
115
104
252
252
252
255
255
255
255
255
255
255
255
255
255
255
255
255
255
255
255
255
255
255
255
255
255
255
255
255
255
255
255
255
255
255
255
255
255
255
255
255
255
255
255
255
255
255
255
255
255
255
255
255
255
255
255
255
255
255
255
255
255
255
255
191
194
191
0
57
0
0
57
0
0
57
0
2
217
0
2
217
0
2
217
0
2
217
0
2
217
0
2
217
0
2
217
0
2
217
0
2
217
0
2
217
0
2
217
0
34
67
34
0
57
0
0
57
0
0
57
0
196
199
196
255
255
255
255
255
255
255
255
255
255
255
255
255
255
255
255
255
255
255
255
255
255
255
255
255
255
255
255
255
255
255
255
255
255
255
255
255
255
255
255
255
255
255
255
255
255
255
255
255
255
255
255
255
255
255
255
255
245
245
245
66
86
66
0
57
0
0
57
0
0
57
0
2
217
0
2
217
0
2
217
0
2
217
0
2
217
0
2
217
0
2
217
0
2
217
0
2
217
0
2
217
0
2
217
0
2
217
0
0
57
0
0
57
0
0
57
0
66
86
66
244
245
244
255
255
255
255
255
255
255
255
255
255
255
255
255
255
255
255
255
255
255
255
255
255
255
255
255
255
255
255
255
255
255
255
255
255
255
255
255
255
255
255
255
255
255
255
255
255
255
255
255
255
255
255
255
255
167
172
167
0
57
0
0
57
0
0
57
0
2
217
0
2
217
0
2
217
0
2
217
0
2
217
0
2
217
0
2
217
0
2
217
0
2
217
0
2
217
0
2
217
0
2
217
0
2
217
0
2
217
0
0
57
0
0
57
0
0
57
0
171
176
171
255
255
255
255
255
255
255
255
255
255
255
255
255
255
255
255
255
255
255
255
255
255
255
255
255
255
255
255
255
255
255
255
255
255
255
255
255
255
255
255
255
255
255
255
255
255
255
255
255
255
255
233
234
233
28
65
28
0
57
0
0
57
0
0
57
0
2
217
0
2
217
0
2
217
0
2
217
0
2
217
0
2
217
0
2
217
0
2
217
0
2
217
0
2
217
0
2
217
0
2
217
0
2
217
0
2
217
0
0
57
0
0
57
0
0
57
0
28
65
28
234
235
234
255
255
255
255
255
255
255
255
255
255
255
255
255
255
255
255
255
255
255
255
255
255
255
255
255
255
255
255
255
255
255
255
255
255
255
255
255
255
255
255
255
255
255
255
255
255
255
255
141
148
141
0
57
0
0
57
0
0
57
0
2
217
0
2
217
0
2
217
0
2
217
0
2
217
0
2
217
0
2
217
0
2
217
0
2
217
0
2
217
0
2
217
0
2
217
0
2
217
0
2
217
0
2
217
0
2
217
0
0
57
0
0
57
0
0
57
0
138
146
138
255
255
255
255
255
255
255
255
255
255
255
255
255
255
255
255
255
255
255
255
255
255
255
255
255
255
255
255
255
255
255
255
255
255
255
255
255
255
255
255
255
255
255
255
255
215
217
215
0
57
0
0
57
0
0
57
0
0
57
0
2
217
0
2
217
0
2
217
0
2
217
0
2
217
0
2
217
0
2
217
0
2
217
0
2
217
0
2
217
0
2
217
0
2
217
0
2
217
0
2
217
0
2
217
0
2
217
0
0
57
0
0
57
0
0
57
0
0
57
0
216
218
216
255
255
255
255
255
255
255
255
255
255
255
255
255
255
255
255
255
255
255
255
255
255
255
255
255
255
255
255
255
255
255
255
255
255
255
255
255
255
255
252
252
252
106
118
106
0
57
0
0
57
0
0
57
0
2
217
0
2
217
0
2
217
0
2
217
0
2
217
0
2
217
0
2
217
0
2
217
0
2
217
0
2
217
0
2
217
0
2
217
0
2
217
0
2
217
0
2
217
0
2
217
0
2
217
0
2
217
0
0
57
0
0
57
0
0
57
0
102
114
102
252
252
252
255
255
255
255
255
255
255
255
255
255
255
255
255
255
255
255
255
255
255
255
255
255
255
255
255
255
255
255
255
255
255
255
255
255
255
255
195
198
195
0
57
0
0
57
0
0
57
0
28
65
28
2
217
0
2
217
0
2
217
0
2
217
0
2
217
0
2
217
0
2
217
0
2
217
0
2
217
0
2
217
0
2
217
0
2
217
0
2
217
0
2
217
0
2
217
0
2
217
0
2
217
0
2
217
0
38
69
38
0
57
0
0
57
0
0
57
0
194
197
194
255
255
255
255
255
255
255
255
255
255
255
255
255
255
255
255
255
255
255
255
255
255
255
255
255
255
255
255
255
255
255
255
255
246
246
246
71
90
71
0
57
0
0
57
0
0
57
0
2
217
0
2
217
0
2
217
0
2
217
0
2
217
0
2
217
0
2
217
0
2
217
0
2
217
0
2
217
0
2
217
0
2
217
0
2
217
0
2
217
0
2
217
0
2
217
0
2
217
0
2
217
0
2
217
0
2
217
0
0
57
0
0
57
0
0
57
0
64
85
64
244
245
244
255
255
255
255
255
255
255
255
255
255
255
255
255
255
255
255
255
255
255
255
255
255
255
255
255
255
255
255
255
255
171
176
171
0
57
0
0
57
0
0
57
0
2
217
0
2
217
0
2
217
0
2
217
0
2
217
0
2
217
0
2
217
0
2
217
0
2
217
0
2
217
0
2
217
0
2
217
0
2
217
0
2
217
0
2
217
0
2
217
0
2
217
0
2
217
0
2
217
0
2
217
0
2
217
0
77
94
77
0
57
0
0
57
0
0
57
0
169
174
169
255
255
255
255
255
255
255
255
255
255
255
255
255
255
255
255
255
255
255
255
255
255
255
255
255
255
255
236
236
236
34
67
34
0
57
0
0
57
0
0
57
0
2
217
0
2
217
0
2
217
0
2
217
0
2
217
0
2
217
0
2
217
0
2
217
0
2
217
0
2
217
0
2
217
0
2
217
0
2
217
0
2
217
0
2
217
0
2
217
0
2
217
0
2
217
0
2
217
0
2
217
0
2
217
0
2
217
0
0
57
0
0
57
0
0
57
0
22
62
22
231
232
231
255
255
255
255
255
255
255
255
255
255
255
255
255
255
255
255
255
255
255
255
255
255
255
255
144
151
144
0
57
0
0
57
0
0
57
0
2
217
0
2
217
0
2
217
0
2
217
0
2
217
0
2
217
0
2
217
0
2
217
0
2
217
0
2
217
0
2
217
0
2
217
0
2
217
0
2
217
0
2
217
0
2
217
0
2
217
0
2
217
0
2
217
0
2
217
0
2
217
0
2
217
0
2
217
0
2
217
0
0
57
0
0
57
0
0
57
0
132
140
132
255
255
255
255
255
255
255
255
255
255
255
255
255
255
255
255
255
255
255
255
255
218
220
218
0
57
0
0
57
0
0
57
0
0
57
0
2
217
0
2
217
0
2
217
0
2
217
0
2
217
0
2
217
0
2
217
0
2
217
0
2
217
0
2
217
0
2
217
0
2
217
0
2
217
0
2
217
0
2
217
0
2
217
0
2
217
0
2
217
0
2
217
0
2
217
0
2
217
0
2
217
0
2
217
0
2
217
0
0
57
0
0
57
0
0
57
0
0
57
0
215
217
215
255
255
255
255
255
255
255
255
255
255
255
255
255
255
255
253
253
253
110
121
110
0
57
0
0
57
0
0
57
0
2
217
0
2
217
0
2
217
0
2
217
0
2
217
0
2
217
0
2
217
0
2
217
0
2
217
0
2
217
0
2
217
0
2
217
0
2
217
0
2
217
0
2
217
0
2
217
0
2
217
0
2
217
0
2
217
0
2
217
0
2
217
0
2
217
0
2
217
0
2
217
0
2
217
0
2
217
0
0
57
0
0
57
0
0
57
0
102
114
102
252
252
252
255
255
255
255
255
255
255
255
255
255
255
255
198
201
198
0
57
0
0
57
0
0
57
0
0
57
0
0
57
0
0
57
0
0
57
0
0
57
0
0
57
0
0
57
0
0
57
0
0
57
0
0
57
0
0
57
0
0
57
0
0
57
0
0
57
0
0
57
0
0
57
0
0
57
0
0
57
0
0
57
0
0
57
0
0
57
0
0
57
0
0
57
0
0
57
0
0
57
0
0
57
0
0
57
0
0
57
0
0
57
0
0
57
0
0
57
0
192
195
192
255
255
255
255
255
255
255
255
255
247
247
247
75
93
75
0
57
0
0
57
0
0
57
0
0
57
0
0
57
0
0
57
0
0
57
0
0
57
0
0
57
0
0
57
0
0
57
0
0
57
0
0
57
0
0
57
0
0
57
0
0
57
0
0
57
0
0
57
0
0
57
0
0
57
0
0
57
0
0
57
0
0
57
0
0
57
0
0
57
0
0
57
0
0
57
0
0
57
0
0
57
0
0
57
0
0
57
0
0
57
0
0
57
0
0
57
0
64
85
64
244
245
244
255
255
255
255
255
255
176
180
176
0
57
0
0
57
0
0
57
0
0
57
0
0
57
0
0
57
0
0
57
0
0
57
0
0
57
0
0
57
0
0
57
0
0
57
0
0
57
0
0
57
0
0
57
0
0
57
0
0
57
0
0
57
0
0
57
0
0
57
0
0
57
0
0
57
0
0
57
0
0
57
0
0
57
0
0
57
0
0
57
0
0
57
0
0
57
0
0
57
0
0
57
0
0
57
0
0
57
0
0
57
0
0
57
0
0
57
0
167
171
167
255
255
255
240
241
240
83
99
83
73
91
73
73
91
73
73
91
73
73
91
73
73
91
73
73
91
73
73
91
73
73
91
73
73
91
73
73
91
73
73
91
73
73
91
73
73
91
73
73
91
73
73
91
73
73
91
73
73
91
73
73
91
73
73
91
73
73
91
73
73
91
73
73
91
73
73
91
73
73
91
73
73
91
73
73
91
73
73
91
73
73
91
73
73
91
73
73
91
73
73
91
73
73
91
73
73
91
73
73
91
73
73
91
73
73
91
73
77
94
77
236
236
236
255
255
255
255
255
255
255
255
255
255
255
255
255
255
255
255
255
255
255
255
255
255
255
255
255
255
255
255
255
255
255
255
255
255
255
255
255
255
255
255
255
255
255
255
255
255
255
255
255
255
255
255
255
255
255
255
255
255
255
255
255
255
255
255
255
255
255
255
255
255
255
255
255
255
255
255
255
255
255
255
255
255
255
255
255
255
255
255
255
255
255
255
255
255
255
255
255
255
255
255
255
255
255
255
255
255
255
255
255
255
255
255
255
255
255
255
255
255
255
255
255
255
255
255
255
255
255
255
255
255
255
255
255
255
255
255
255
255
255
255
255
255
255
255
255
255
255
255
255
255
255
255
255
255
255
255
255
255
255
255
255
255
255
255
255
255
255
255
255
255
255
255
255
255
255
255
255
255
255
255
255
255
255
255
255
255
255
255
255
255
255
255
255
255
255
255
255
255
255
255
255
255
255
255
255
255
255
255
255
255
255
255
255
255
255
255
255
255
255
255
255
255
255
255
255
255
255
255
255
255
255
255
255
255
255
255
255
255
255
255
255
255
255
255
255
255
255
255
255
255
255
255
255
255
255
255
255
255
255
255
255
255
255
255
255
255
255
255
255
255
255
255
255
255
255
255
255
255
255
255
255
255
255
255
255
255
255
255
255
255
255
255
255
255
255
255
255
255
255
255
255
255
255
255
255
255
255
255
255
255
255
255
255
255
255
255
255
255
255
255
255
255
255
255
255
255
255
255
255
255
255
255
255
255
255
255
255
255
255
255
255
255
255
255
255
255
255
255
255
255
255
255
255
255
255
255
255
255
255
255
255
255
255
255
255
255
255
255
255
255
255
255
255
255
255
255
255
255
255
255
255
255
255
255
255
255
255
255
255
255
255
255
255
255
255
255
255
255
255
255
255
255
255
255
255
255
255
255
255
255
255
255
255
255
255
255
255
255
255
255
255
255
255
255
255
255
255
255
255
255
255
255
255
255
255
255
255
255
255
255
255
255
255
255
255
255
255
255
255
255
255
255
255
255
255
255
255
255
255
255
255
255
255
255
255
255
255
255
255
255
255
255
255
255
255
255
255
255
255
255
